HIERARCHY
ROOT Hips
{
	OFFSET 0.000000 0.000000 0.000000
	CHANNELS 6 Xposition Yposition Zposition Zrotation Yrotation Xrotation 
	JOINT LHipJoint
	{
		OFFSET 0.000000 0.000000 0.000000
		CHANNELS 3 Zrotation Yrotation Xrotation
		JOINT LeftUpLeg
		{
			OFFSET 1.363060 -1.794630 0.839290
			CHANNELS 3 Zrotation Yrotation Xrotation
			JOINT LeftLeg
			{
				OFFSET 2.448110 -6.726130 0.000000
				CHANNELS 3 Zrotation Yrotation Xrotation
				JOINT LeftFoot
				{
					OFFSET 2.562200 -7.039590 0.000000
					CHANNELS 3 Zrotation Yrotation Xrotation
					JOINT LeftToeBase
					{
						OFFSET 0.157640 -0.433110 2.322550
						CHANNELS 3 Zrotation Yrotation Xrotation
						End Site
						{
							OFFSET 0.000000 0.000000 0.000000
						}
					}
				}
			}
		}
	}
	JOINT RHipJoint
	{
		OFFSET 0.000000 0.000000 0.000000
		CHANNELS 3 Zrotation Yrotation Xrotation
		JOINT RightUpLeg
		{
			OFFSET -1.305520 -1.794630 0.839290
			CHANNELS 3 Zrotation Yrotation Xrotation
			JOINT RightLeg
			{
				OFFSET -2.542530 -6.985550 0.000000
				CHANNELS 3 Zrotation Yrotation Xrotation
				JOINT RightFoot
				{
					OFFSET -2.568260 -7.056230 0.000000
					CHANNELS 3 Zrotation Yrotation Xrotation
					JOINT RightToeBase
					{
						OFFSET -0.164730 -0.452590 2.363150
						CHANNELS 3 Zrotation Yrotation Xrotation
						End Site
						{
							OFFSET 0.000000 0.000000 0.000000
						}
					}
				}
			}
		}
	}
	JOINT LowerBack
	{
		OFFSET 0.000000 0.000000 0.000000
		CHANNELS 3 Zrotation Yrotation Xrotation
		JOINT Spine
		{
			OFFSET 0.028270 2.035590 -0.193380
			CHANNELS 3 Zrotation Yrotation Xrotation
			JOINT Spine1
			{
				OFFSET 0.056720 2.048850 -0.042750
				CHANNELS 3 Zrotation Yrotation Xrotation
				JOINT Neck
				{
					OFFSET 0.000000 0.000000 0.000000
					CHANNELS 3 Zrotation Yrotation Xrotation
					JOINT Neck1
					{
						OFFSET -0.054170 1.746240 0.172020
						CHANNELS 3 Zrotation Yrotation Xrotation
						JOINT Head
						{
							OFFSET 0.104070 1.761360 -0.123970
							CHANNELS 3 Zrotation Yrotation Xrotation
							End Site
							{
								OFFSET 0.000000 0.000000 0.000000
							}
						}
					}
				}
				JOINT LeftShoulder
				{
					OFFSET 0.000000 0.000000 0.000000
					CHANNELS 3 Zrotation Yrotation Xrotation
					JOINT LeftArm
					{
						OFFSET 3.362410 1.200890 -0.311210
						CHANNELS 3 Zrotation Yrotation Xrotation
						JOINT LeftForeArm
						{
							OFFSET 4.983000 -0.000000 -0.000000
							CHANNELS 3 Zrotation Yrotation Xrotation
							JOINT LeftHand
							{
								OFFSET 3.483560 -0.000000 -0.000000
								CHANNELS 3 Zrotation Yrotation Xrotation
								JOINT LeftFingerBase
								{
									OFFSET 0.000000 0.000000 0.000000
									CHANNELS 3 Zrotation Yrotation Xrotation
									JOINT LeftHandIndex1
									{
										OFFSET 0.715260 -0.000000 -0.000000
										CHANNELS 3 Zrotation Yrotation Xrotation
										End Site
										{
											OFFSET 0.000000 0.000000 0.000000
										}
									}
								}
								JOINT LThumb
								{
									OFFSET 0.000000 0.000000 0.000000
									CHANNELS 3 Zrotation Yrotation Xrotation
									End Site
									{
										OFFSET 0.000000 0.000000 0.000000
									}
								}
							}
						}
					}
				}
				JOINT RightShoulder
				{
					OFFSET 0.000000 0.000000 0.000000
					CHANNELS 3 Zrotation Yrotation Xrotation
					JOINT RightArm
					{
						OFFSET -3.136600 1.374050 -0.404650
						CHANNELS 3 Zrotation Yrotation Xrotation
						JOINT RightForeArm
						{
							OFFSET -5.241900 -0.000000 -0.000000
							CHANNELS 3 Zrotation Yrotation Xrotation
							JOINT RightHand
							{
								OFFSET -3.444170 -0.000000 -0.000000
								CHANNELS 3 Zrotation Yrotation Xrotation
								JOINT RightFingerBase
								{
									OFFSET 0.000000 0.000000 0.000000
									CHANNELS 3 Zrotation Yrotation Xrotation
									JOINT RightHandIndex1
									{
										OFFSET -0.622530 -0.000000 -0.000000
										CHANNELS 3 Zrotation Yrotation Xrotation
										End Site
										{
											OFFSET 0.000000 0.000000 0.000000
										}
									}
								}
								JOINT RThumb
								{
									OFFSET 0.000000 0.000000 0.000000
									CHANNELS 3 Zrotation Yrotation Xrotation
									End Site
									{
										OFFSET 0.000000 0.000000 0.000000
									}
								}
							}
						}
					}
				}
			}
		}
	}
}
MOTION
Frames: 11
Frame Time: 0.008333
12.738536 17.500519 0.458315 -7.204894 -36.928808 -9.139877 4.604876 1.812766 -0.160685 -5.548155 -19.620958 -77.958866 33.028463 17.525952 130.001223 0.469637 -4.104877 -6.157574 10.822600 -17.847200 -62.204200 -9.367711 -1.933483 -2.546904 23.165504 15.096058 -68.238389 -29.846856 -20.845068 121.196667 -0.696137 -0.602085 -14.011524 -5.502100 13.927900 -42.949400 12.318477 -0.901330 25.343890 0.411547 0.962646 -1.438921 -7.957999 0.627160 4.723240 -3.367988 -1.320147 -9.916316 2.259743 -1.719765 3.728119 -0.030500 -0.807700 0.776300 1.262811 -5.078227 2.220802 -83.524616 -15.516615 43.818407 10.923563 -20.519470 -3.418839 -0.538602 2.590478 -4.970874 23.557230 -30.132865 -13.542700 -7.125000 0.000000 0.000000 -4.567300 -5.208900 4.978300 -1.451892 4.578309 2.078937 84.973973 8.069256 20.219854 -10.503896 30.824940 -4.936665 1.870050 -1.009787 -1.591676 -10.262237 -26.576032 5.250100 7.125000 0.000000 0.000000 18.630200 -54.837100 -4.620700 
12.741440 17.512471 0.462001 -6.714906 -37.044541 -9.581511 4.616033 1.827084 -0.169284 -6.182952 -19.588948 -77.430384 32.986648 17.565712 129.847573 0.528311 -4.299102 -6.808785 10.841800 -17.856800 -62.266600 -9.388487 -1.881020 -2.593606 22.563038 15.072656 -68.181976 -29.940090 -20.771297 121.491644 -0.954255 0.952564 -14.000390 -4.587800 12.904000 -39.010000 11.522532 -0.909085 25.239477 0.460538 0.830485 -1.362158 -7.306033 0.496131 5.038187 -3.606978 -1.189493 -10.102289 2.297974 -1.529741 3.654423 -0.017400 -0.716000 0.759000 1.262443 -5.063111 2.229521 -83.922070 -15.744476 42.924622 10.782949 -20.395881 -3.397334 -0.516780 2.601797 -4.487848 23.660001 -30.153754 -13.616500 -7.125000 0.000000 0.000000 -4.515100 -5.263300 4.925000 -1.345939 4.529626 2.109579 84.489121 8.201537 21.018658 -10.510937 30.750251 -4.869759 1.855739 -0.960545 -1.514015 -10.372381 -26.069652 5.205500 7.125000 0.000000 0.000000 18.282800 -54.426400 -4.344400 
12.744121 17.525987 0.466916 -6.124410 -37.121570 -10.042920 4.633559 1.841306 -0.176847 -6.913924 -19.640488 -76.948885 32.936758 17.608955 129.668345 0.580983 -4.419512 -7.425616 10.798100 -17.834900 -62.124300 -9.406595 -1.828778 -2.641386 21.837689 15.011719 -68.195683 -30.043281 -20.700878 121.800983 -1.177729 2.361532 -13.980822 -3.744600 11.812500 -35.072000 10.669474 -0.896592 25.066696 0.492449 0.698129 -1.282316 -6.733161 0.365692 5.408018 -3.788750 -1.068946 -10.340877 2.368772 -1.352672 3.591027 0.005100 -0.629400 0.753800 1.247464 -5.046458 2.244779 -84.142499 -16.020201 42.187488 10.675125 -20.306417 -3.381031 -0.499274 2.606668 -4.210241 23.653916 -30.130838 -13.602800 -7.125000 0.000000 0.000000 -4.517800 -5.240500 4.926300 -1.260345 4.479788 2.134683 84.162390 8.237679 21.803895 -10.746384 30.922425 -4.904883 1.854445 -0.931909 -1.477643 -10.719671 -25.873869 5.323000 7.125000 0.000000 0.000000 17.846900 -54.328600 -4.192500 
12.747472 17.538833 0.467028 -5.520245 -37.185490 -10.514405 4.649869 1.860657 -0.181038 -7.605885 -19.711261 -76.523695 32.880795 17.656285 129.467500 0.632153 -4.531922 -8.003099 10.787000 -17.829300 -62.087800 -9.423126 -1.773644 -2.690162 21.126957 14.963489 -68.213796 -30.143680 -20.633621 122.100527 -1.347794 3.547825 -13.879914 -3.035900 10.753000 -31.451200 9.764602 -0.906243 24.940814 0.529402 0.546891 -1.206615 -6.118447 0.213397 5.763397 -3.976131 -0.931581 -10.673640 2.391505 -1.141806 3.568549 -0.000200 -0.528900 0.798800 1.234554 -5.036025 2.255832 -84.338005 -16.327816 41.488912 10.580913 -20.228740 -3.366536 -0.488696 2.606661 -4.026554 23.659336 -30.002186 -13.559100 -7.125000 0.000000 0.000000 -4.494100 -5.108600 4.890900 -1.168900 4.442260 2.153158 83.839720 8.195700 22.636828 -11.228598 31.321683 -5.037663 1.873096 -0.884485 -1.667334 -10.908346 -26.070969 5.459500 7.125000 0.000000 0.000000 17.769200 -54.589000 -4.287700 
12.751829 17.548886 0.462559 -4.782663 -37.249360 -11.127339 4.656823 1.908574 -0.178282 -8.384947 -19.818389 -76.046950 32.822682 17.707159 129.255521 0.733955 -4.811037 -9.010379 10.849400 -17.860600 -62.291500 -9.455635 -1.684922 -2.777157 20.369294 14.892929 -68.183195 -30.241461 -20.565221 122.393089 -1.467755 4.533791 -13.675832 -2.442300 9.732200 -28.113800 8.396761 -0.862907 24.850056 0.649500 0.484586 -1.085676 -4.733435 0.009851 6.229144 -4.581988 -0.791090 -11.005730 2.314466 -0.897477 3.459334 -0.018400 -0.419300 0.792600 1.261734 -5.017762 2.261810 -85.147561 -16.823938 40.625454 10.418448 -20.099746 -3.348701 -0.466548 2.619445 -3.566941 23.916078 -30.015230 -13.726100 -7.125000 0.000000 0.000000 -4.356000 -5.196100 4.745800 -0.938939 4.357243 2.205649 82.827607 8.590060 23.349468 -11.410137 31.273283 -5.068630 1.892382 -0.722632 -2.131352 -10.630014 -26.645495 5.487300 7.125000 0.000000 0.000000 18.435000 -55.226900 -4.747100 
12.759201 17.565418 0.454964 -3.900913 -37.305355 -11.778563 4.637733 2.013382 -0.163588 -9.254333 -20.035296 -75.548498 32.752772 17.771816 128.987608 0.931033 -5.353169 -10.759907 10.893300 -17.882500 -62.434500 -9.539555 -1.533378 -2.935642 19.278816 14.772094 -68.418468 -30.391527 -20.468631 122.847371 -1.628467 6.130553 -13.184437 -1.488700 7.708300 -21.831400 5.983676 -0.784846 24.404858 0.965240 0.457973 -0.853818 -1.462906 -0.409857 7.333913 -7.147077 -1.287020 -12.117055 3.019097 -1.293618 3.492256 0.731200 -0.587700 1.034900 1.260427 -4.988361 2.235679 -87.272090 -17.974835 38.769733 10.071981 -19.782425 -3.310133 -0.374064 2.645854 -2.437792 24.125081 -30.305130 -13.945700 -7.125000 0.000000 0.000000 -4.316300 -5.564400 4.727400 -0.474430 4.147035 2.292366 80.282531 9.651590 24.706372 -11.280058 30.647557 -4.916138 1.881776 -0.451415 -2.398171 -11.109955 -26.417461 5.706700 7.125000 0.000000 0.000000 17.980500 -55.348900 -4.678300 
12.762440 17.567205 0.456863 -3.317810 -37.102444 -12.350753 4.730131 1.951040 -0.168432 -10.107788 -20.459989 -75.049930 32.700524 17.788222 128.824031 0.955221 -5.150087 -11.226157 10.854100 -17.862900 -62.306900 -9.471377 -1.576677 -2.883394 18.642179 14.442354 -68.262529 -30.457073 -20.438488 123.011896 -1.686222 6.474445 -13.277099 -1.502600 7.742500 -21.934700 6.585652 -1.042645 24.697019 0.648001 -0.069285 -0.914690 -4.034770 -0.408994 7.007180 -4.852072 -0.379057 -11.350674 2.562630 -0.329506 3.159432 0.094600 -0.134500 0.655700 1.149798 -4.971003 2.328429 -85.043945 -17.453317 38.637924 10.224063 -19.910389 -3.341342 -0.425314 2.651060 -3.060397 23.835285 -30.382578 -13.806600 -7.125000 0.000000 0.000000 -4.478700 -5.580600 4.907400 -0.869173 4.207429 2.269037 82.593893 9.355374 25.088891 -11.144720 31.020299 -4.901448 1.859809 -0.793307 -1.162357 -12.463960 -25.804307 6.102300 7.125000 0.000000 0.000000 16.124100 -54.706800 -3.920900 
12.765233 17.571562 0.460437 -2.610296 -37.071660 -13.033963 4.785947 1.929589 -0.179661 -11.008276 -20.660932 -74.452948 32.624710 17.824538 128.602042 0.869584 -5.024201 -10.422995 10.293800 -17.571800 -60.465700 -9.432457 -1.557875 -2.880840 18.012753 14.241999 -67.979557 -30.514152 -20.397942 123.160245 -1.749718 6.875744 -13.365022 -1.496400 7.727100 -21.888300 6.359021 -1.053128 24.948033 0.508370 -0.208547 -0.920541 -4.773368 -0.420003 6.947962 -4.478098 -0.365875 -11.366132 2.688554 -0.336321 3.208344 0.126600 -0.130200 0.691000 1.068094 -4.975353 2.346651 -84.307616 -17.284078 38.673827 10.285992 -19.961347 -3.354927 -0.451647 2.653266 -3.370826 23.800405 -30.423709 -13.807300 -7.125000 0.000000 0.000000 -4.499100 -5.619200 4.932600 -1.025352 4.229691 2.248274 83.314666 9.186137 25.251879 -11.190247 31.232187 -4.925518 1.848335 -0.904620 -0.882970 -12.952560 -25.556570 6.230100 7.125000 0.000000 0.000000 15.457700 -54.450600 -3.655400 
12.766909 17.571785 0.462224 -1.784702 -37.088326 -13.795846 4.830000 1.940537 -0.176319 -11.990411 -20.781115 -73.858365 32.563182 17.860929 128.408820 0.850498 -4.951669 -10.289766 9.992000 -17.405400 -59.461700 -9.412195 -1.508307 -2.910356 17.316382 14.093230 -67.750182 -30.574485 -20.358670 123.316761 -1.783532 7.104867 -13.402795 -1.514900 7.772700 -22.025800 5.659633 -0.918262 25.221665 0.455628 -0.127610 -0.897621 -4.674706 -0.427086 6.935171 -4.454642 -0.411138 -11.445761 2.668027 -0.389646 3.262277 0.099400 -0.158600 0.746200 1.050288 -4.983636 2.346665 -84.252327 -17.275124 38.863802 10.306858 -19.993356 -3.360230 -0.470361 2.651551 -3.495897 23.950375 -30.340043 -13.878600 -7.125000 0.000000 0.000000 -4.394400 -5.571500 4.813900 -1.027251 4.235316 2.247587 83.336433 9.139130 25.210836 -11.283808 31.314071 -4.976237 1.861327 -0.889584 -1.046539 -12.956723 -25.952056 6.331700 7.125000 0.000000 0.000000 15.648000 -54.843100 -3.853300 
12.768919 17.573908 0.468256 0.023498 -36.925967 -15.477842 4.919623 2.017233 -0.109446 -14.226543 -21.414978 -72.507071 32.448654 17.923928 128.031123 0.878179 -4.369614 -11.197523 10.159100 -17.498400 -60.018800 -9.385021 -1.367961 -2.986562 15.730424 13.478184 -67.260982 -30.688122 -20.281998 123.594309 -1.840313 7.619542 -13.353030 -1.569400 7.904800 -22.425300 3.618384 -0.573897 26.140075 0.476422 0.203033 -0.931816 -3.316614 -0.488100 6.306135 -5.055331 -0.449206 -11.214839 2.575202 -0.420378 3.317589 0.081000 -0.184400 0.795800 1.130443 -5.089774 2.296777 -85.242557 -16.914252 38.890859 10.277582 -20.026509 -3.365589 -0.435379 2.648576 -3.115534 24.076550 -30.309024 -13.935400 -7.125000 0.000000 0.000000 -4.328100 -5.565000 4.740400 -0.882680 4.310223 2.247535 82.497127 8.604275 24.761325 -11.571423 31.313057 -5.050767 1.887061 -0.712598 -1.974459 -11.857892 -26.393575 5.985000 7.125000 0.000000 0.000000 17.063100 -55.219000 -4.374500 
12.770148 17.575695 0.466581 0.184139 -37.134872 -15.696727 4.862031 2.166968 0.042978 -14.213739 -21.345527 -72.543296 32.453305 17.940847 128.011211 0.915057 -4.158175 -11.802716 10.608400 -17.738100 -61.503300 -9.417799 -1.246597 -2.986524 15.772582 13.589819 -67.104897 -30.676407 -20.250066 123.588762 -1.836771 7.637540 -13.319955 -1.540800 7.835800 -22.216500 1.797329 -0.209545 27.410514 0.890513 0.966768 -1.235110 0.481288 -0.448502 4.320635 -7.496587 -0.912118 -10.795724 2.616248 -0.904472 3.675861 0.416500 -0.441500 1.122600 1.488686 -5.375144 2.058383 -88.696845 -15.722039 38.192089 10.163817 -20.063421 -3.382476 -0.294382 2.641363 -1.814256 24.229601 -30.607577 -14.089800 -7.125000 0.000000 0.000000 -4.338800 -5.891200 4.774300 -0.387928 4.574192 2.200142 79.506946 6.854825 24.285802 -12.249186 31.248167 -5.181617 1.881415 -0.244689 -4.078219 -9.571351 -26.502934 5.060200 7.125000 0.000000 0.000000 19.676300 -55.300300 -5.120400 
